<svg width="274" height="228" viewBox="0 0 274 228" fill="none" xmlns="http://www.w3.org/2000/svg">
<path d="M58.3796 88.4013C44.433 102.483 44.433 125.332 58.3796 139.414L60.0568 141.109C45.9038 153.89 24.1563 153.409 10.5665 139.688C-3.52218 125.454 -3.52218 102.374 10.5665 88.1498L87.3443 10.5697C100.892 -3.12948 122.639 -3.51222 136.64 9.42145C136.143 9.8698 135.645 10.34 135.159 10.8321L58.3796 88.4013Z" fill="#01205B"/>
<path d="M187.538 60.883C187.181 61.2986 186.803 61.7032 186.413 62.1078C186.336 62.1953 186.25 62.2827 186.164 62.3702C186.088 62.4468 186.012 62.5233 185.936 62.5889L135.158 113.908L110.12 139.207C110.045 139.272 109.98 139.338 109.904 139.415L109.396 139.939C95.4494 154.021 95.4494 176.871 109.396 190.952L135.407 217.246C135.807 217.651 136.208 218.034 136.619 218.405C122.618 231.328 100.88 230.945 87.3341 217.246L61.5707 191.226L10.5659 139.688C24.1557 153.409 45.9045 153.89 60.0561 141.11C60.4894 140.738 60.9009 140.344 61.3123 139.939C61.3984 139.863 61.4845 139.775 61.5707 139.688C61.6472 139.611 61.7224 139.535 61.788 139.458L112.577 88.1501L137.614 62.8514C137.68 62.7748 137.744 62.7092 137.819 62.6327L138.339 62.1187C151.853 48.4524 173.526 48.0368 187.538 60.883Z" fill="#186093"/>
<path d="M187.571 60.8502C187.56 60.8612 187.549 60.8721 187.538 60.883C173.526 48.0368 151.853 48.4524 138.34 62.1187L137.821 62.6327C137.744 62.7092 137.68 62.7748 137.614 62.8514L112.577 88.1501L61.7878 139.458C61.7222 139.535 61.647 139.611 61.5719 139.688C61.4844 139.775 61.3983 139.863 61.3121 139.939C60.9007 140.344 60.4893 140.738 60.0559 141.11L58.3801 139.415C44.4322 125.333 44.4322 102.483 58.3801 88.4016L135.158 10.8324C135.646 10.3403 136.143 9.87008 136.641 9.42173C150.794 -3.38071 172.563 -2.9105 186.164 10.8324C199.754 24.5753 200.219 46.5496 187.571 60.8502Z" fill="#7CC3C2"/>
<path d="M262.921 139.415L186.413 216.732L185.904 217.246C172.357 230.923 150.631 231.317 136.619 218.405C136.208 218.034 135.807 217.651 135.407 217.246L109.396 190.952C95.4494 176.871 95.4494 154.021 109.396 139.939L109.904 139.415C109.98 139.338 110.045 139.272 110.12 139.207L135.158 113.908L185.937 62.5889C186.012 62.5233 186.088 62.4468 186.164 62.3702C186.25 62.2828 186.338 62.1953 186.413 62.1078C186.803 61.7032 187.181 61.2986 187.538 60.883C187.754 61.0799 187.971 61.2877 188.187 61.4845L187.571 60.8502C200.219 46.5497 199.754 24.5753 186.164 10.8324L237.17 62.3702L262.921 88.4016C276.868 102.483 276.868 125.333 262.921 139.415Z" fill="#C2DAE8"/>
</svg>
